<svg xmlns="http://www.w3.org/2000/svg" viewBox="0 0 24 17">
  <rect x="2" y="2" width="1.05" height="1.05" fill="#3a3a3a"/>
  <rect x="3" y="2" width="1.05" height="1.05" fill="#3a3a3a"/>
  <rect x="8" y="2" width="1.05" height="1.05" fill="#3a3a3a"/>
  <rect x="9" y="2" width="1.05" height="1.05" fill="#3a3a3a"/>
  <rect x="18" y="2" width="1.05" height="1.05" fill="#111111"/>
  <rect x="19" y="2" width="1.05" height="1.05" fill="#111111"/>
  <rect x="1" y="3" width="1.05" height="1.05" fill="#3a3a3a"/>
  <rect x="2" y="3" width="1.05" height="1.05" fill="#111111"/>
  <rect x="3" y="3" width="1.05" height="1.05" fill="#111111"/>
  <rect x="4" y="3" width="1.05" height="1.05" fill="#3a3a3a"/>
  <rect x="7" y="3" width="1.05" height="1.05" fill="#3a3a3a"/>
  <rect x="8" y="3" width="1.05" height="1.05" fill="#111111"/>
  <rect x="9" y="3" width="1.05" height="1.05" fill="#111111"/>
  <rect x="10" y="3" width="1.05" height="1.05" fill="#3a3a3a"/>
  <rect x="17" y="3" width="1.05" height="1.05" fill="#111111"/>
  <rect x="18" y="3" width="1.05" height="1.05" fill="#eeeeee"/>
  <rect x="19" y="3" width="1.05" height="1.05" fill="#eeeeee"/>
  <rect x="20" y="3" width="1.05" height="1.05" fill="#111111"/>
  <rect x="0" y="4" width="1.05" height="1.05" fill="#3a3a3a"/>
  <rect x="1" y="4" width="1.05" height="1.05" fill="#111111"/>
  <rect x="2" y="4" width="1.05" height="1.05" fill="#111111"/>
  <rect x="3" y="4" width="1.05" height="1.05" fill="#767676"/>
  <rect x="4" y="4" width="1.05" height="1.05" fill="#3a3a3a"/>
  <rect x="5" y="4" width="1.05" height="1.05" fill="#3a3a3a"/>
  <rect x="6" y="4" width="1.05" height="1.05" fill="#3a3a3a"/>
  <rect x="7" y="4" width="1.05" height="1.05" fill="#3a3a3a"/>
  <rect x="8" y="4" width="1.05" height="1.05" fill="#767676"/>
  <rect x="9" y="4" width="1.05" height="1.05" fill="#111111"/>
  <rect x="10" y="4" width="1.05" height="1.05" fill="#111111"/>
  <rect x="11" y="4" width="1.05" height="1.05" fill="#3a3a3a"/>
  <rect x="17" y="4" width="1.05" height="1.05" fill="#111111"/>
  <rect x="18" y="4" width="1.05" height="1.05" fill="#111111"/>
  <rect x="19" y="4" width="1.05" height="1.05" fill="#111111"/>
  <rect x="1" y="5" width="1.05" height="1.05" fill="#b8b8b8"/>
  <rect x="2" y="5" width="1.05" height="1.05" fill="#767676"/>
  <rect x="3" y="5" width="1.05" height="1.05" fill="#767676"/>
  <rect x="4" y="5" width="1.05" height="1.05" fill="#eeeeee"/>
  <rect x="5" y="5" width="1.05" height="1.05" fill="#eeeeee"/>
  <rect x="6" y="5" width="1.05" height="1.05" fill="#eeeeee"/>
  <rect x="7" y="5" width="1.05" height="1.05" fill="#eeeeee"/>
  <rect x="8" y="5" width="1.05" height="1.05" fill="#eeeeee"/>
  <rect x="9" y="5" width="1.05" height="1.05" fill="#eeeeee"/>
  <rect x="10" y="5" width="1.05" height="1.05" fill="#767676"/>
  <rect x="11" y="5" width="1.05" height="1.05" fill="#767676"/>
  <rect x="12" y="5" width="1.05" height="1.05" fill="#3a3a3a"/>
  <rect x="17" y="5" width="1.05" height="1.05" fill="#111111"/>
  <rect x="18" y="5" width="1.05" height="1.05" fill="#eeeeee"/>
  <rect x="19" y="5" width="1.05" height="1.05" fill="#eeeeee"/>
  <rect x="20" y="5" width="1.05" height="1.05" fill="#111111"/>
  <rect x="1" y="6" width="1.05" height="1.05" fill="#b8b8b8"/>
  <rect x="2" y="6" width="1.05" height="1.05" fill="#b8b8b8"/>
  <rect x="3" y="6" width="1.05" height="1.05" fill="#767676"/>
  <rect x="4" y="6" width="1.05" height="1.05" fill="#eeeeee"/>
  <rect x="5" y="6" width="1.05" height="1.05" fill="#767676"/>
  <rect x="6" y="6" width="1.05" height="1.05" fill="#767676"/>
  <rect x="7" y="6" width="1.05" height="1.05" fill="#767676"/>
  <rect x="8" y="6" width="1.05" height="1.05" fill="#767676"/>
  <rect x="9" y="6" width="1.05" height="1.05" fill="#eeeeee"/>
  <rect x="10" y="6" width="1.05" height="1.05" fill="#767676"/>
  <rect x="11" y="6" width="1.05" height="1.05" fill="#767676"/>
  <rect x="12" y="6" width="1.05" height="1.05" fill="#767676"/>
  <rect x="13" y="6" width="1.05" height="1.05" fill="#3a3a3a"/>
  <rect x="14" y="6" width="1.05" height="1.05" fill="#3a3a3a"/>
  <rect x="16" y="6" width="1.05" height="1.05" fill="#111111"/>
  <rect x="17" y="6" width="1.05" height="1.05" fill="#111111"/>
  <rect x="18" y="6" width="1.05" height="1.05" fill="#111111"/>
  <rect x="19" y="6" width="1.05" height="1.05" fill="#111111"/>
  <rect x="20" y="6" width="1.05" height="1.05" fill="#111111"/>
  <rect x="3" y="7" width="1.05" height="1.05" fill="#b8b8b8"/>
  <rect x="4" y="7" width="1.05" height="1.05" fill="#111111"/>
  <rect x="5" y="7" width="1.05" height="1.05" fill="#eeeeee"/>
  <rect x="6" y="7" width="1.05" height="1.05" fill="#111111"/>
  <rect x="7" y="7" width="1.05" height="1.05" fill="#111111"/>
  <rect x="8" y="7" width="1.05" height="1.05" fill="#eeeeee"/>
  <rect x="9" y="7" width="1.05" height="1.05" fill="#111111"/>
  <rect x="10" y="7" width="1.05" height="1.05" fill="#767676"/>
  <rect x="11" y="7" width="1.05" height="1.05" fill="#767676"/>
  <rect x="12" y="7" width="1.05" height="1.05" fill="#767676"/>
  <rect x="13" y="7" width="1.05" height="1.05" fill="#767676"/>
  <rect x="14" y="7" width="1.05" height="1.05" fill="#3a3a3a"/>
  <rect x="16" y="7" width="1.05" height="1.05" fill="#111111"/>
  <rect x="17" y="7" width="1.05" height="1.05" fill="#111111"/>
  <rect x="18" y="7" width="1.05" height="1.05" fill="#eeeeee"/>
  <rect x="19" y="7" width="1.05" height="1.05" fill="#eeeeee"/>
  <rect x="20" y="7" width="1.05" height="1.05" fill="#111111"/>
  <rect x="3" y="8" width="1.05" height="1.05" fill="#3a3a3a"/>
  <rect x="4" y="8" width="1.05" height="1.05" fill="#111111"/>
  <rect x="5" y="8" width="1.05" height="1.05" fill="#111111"/>
  <rect x="6" y="8" width="1.05" height="1.05" fill="#111111"/>
  <rect x="7" y="8" width="1.05" height="1.05" fill="#111111"/>
  <rect x="8" y="8" width="1.05" height="1.05" fill="#111111"/>
  <rect x="9" y="8" width="1.05" height="1.05" fill="#111111"/>
  <rect x="10" y="8" width="1.05" height="1.05" fill="#767676"/>
  <rect x="11" y="8" width="1.05" height="1.05" fill="#767676"/>
  <rect x="12" y="8" width="1.05" height="1.05" fill="#767676"/>
  <rect x="13" y="8" width="1.05" height="1.05" fill="#767676"/>
  <rect x="14" y="8" width="1.05" height="1.05" fill="#767676"/>
  <rect x="15" y="8" width="1.05" height="1.05" fill="#111111"/>
  <rect x="16" y="8" width="1.05" height="1.05" fill="#111111"/>
  <rect x="17" y="8" width="1.05" height="1.05" fill="#111111"/>
  <rect x="18" y="8" width="1.05" height="1.05" fill="#111111"/>
  <rect x="19" y="8" width="1.05" height="1.05" fill="#111111"/>
  <rect x="3" y="9" width="1.05" height="1.05" fill="#111111"/>
  <rect x="4" y="9" width="1.05" height="1.05" fill="#eeeeee"/>
  <rect x="5" y="9" width="1.05" height="1.05" fill="#eeeeee"/>
  <rect x="6" y="9" width="1.05" height="1.05" fill="#eeeeee"/>
  <rect x="7" y="9" width="1.05" height="1.05" fill="#eeeeee"/>
  <rect x="8" y="9" width="1.05" height="1.05" fill="#b8b8b8"/>
  <rect x="9" y="9" width="1.05" height="1.05" fill="#b8b8b8"/>
  <rect x="10" y="9" width="1.05" height="1.05" fill="#767676"/>
  <rect x="11" y="9" width="1.05" height="1.05" fill="#767676"/>
  <rect x="12" y="9" width="1.05" height="1.05" fill="#767676"/>
  <rect x="13" y="9" width="1.05" height="1.05" fill="#767676"/>
  <rect x="14" y="9" width="1.05" height="1.05" fill="#767676"/>
  <rect x="15" y="9" width="1.05" height="1.05" fill="#767676"/>
  <rect x="16" y="9" width="1.05" height="1.05" fill="#111111"/>
  <rect x="17" y="9" width="1.05" height="1.05" fill="#111111"/>
  <rect x="18" y="9" width="1.05" height="1.05" fill="#111111"/>
  <rect x="19" y="9" width="1.05" height="1.05" fill="#111111"/>
  <rect x="5" y="10" width="1.05" height="1.05" fill="#b8b8b8"/>
  <rect x="6" y="10" width="1.05" height="1.05" fill="#b8b8b8"/>
  <rect x="7" y="10" width="1.05" height="1.05" fill="#eeeeee"/>
  <rect x="8" y="10" width="1.05" height="1.05" fill="#eeeeee"/>
  <rect x="9" y="10" width="1.05" height="1.05" fill="#eeeeee"/>
  <rect x="10" y="10" width="1.05" height="1.05" fill="#b8b8b8"/>
  <rect x="11" y="10" width="1.05" height="1.05" fill="#b8b8b8"/>
  <rect x="12" y="10" width="1.05" height="1.05" fill="#767676"/>
  <rect x="13" y="10" width="1.05" height="1.05" fill="#767676"/>
  <rect x="14" y="10" width="1.05" height="1.05" fill="#767676"/>
  <rect x="15" y="10" width="1.05" height="1.05" fill="#111111"/>
  <rect x="16" y="10" width="1.05" height="1.05" fill="#111111"/>
  <rect x="17" y="10" width="1.05" height="1.05" fill="#111111"/>
  <rect x="18" y="10" width="1.05" height="1.05" fill="#111111"/>
  <rect x="6" y="11" width="1.05" height="1.05" fill="#b8b8b8"/>
  <rect x="7" y="11" width="1.05" height="1.05" fill="#b8b8b8"/>
  <rect x="8" y="11" width="1.05" height="1.05" fill="#eeeeee"/>
  <rect x="9" y="11" width="1.05" height="1.05" fill="#eeeeee"/>
  <rect x="10" y="11" width="1.05" height="1.05" fill="#eeeeee"/>
  <rect x="11" y="11" width="1.05" height="1.05" fill="#b8b8b8"/>
  <rect x="12" y="11" width="1.05" height="1.05" fill="#b8b8b8"/>
  <rect x="13" y="11" width="1.05" height="1.05" fill="#767676"/>
  <rect x="14" y="11" width="1.05" height="1.05" fill="#111111"/>
  <rect x="15" y="11" width="1.05" height="1.05" fill="#111111"/>
  <rect x="16" y="11" width="1.05" height="1.05" fill="#111111"/>
  <rect x="17" y="11" width="1.05" height="1.05" fill="#111111"/>
  <rect x="18" y="11" width="1.05" height="1.05" fill="#111111"/>
  <rect x="7" y="12" width="1.05" height="1.05" fill="#eeeeee"/>
  <rect x="8" y="12" width="1.05" height="1.05" fill="#eeeeee"/>
  <rect x="9" y="12" width="1.05" height="1.05" fill="#eeeeee"/>
  <rect x="10" y="12" width="1.05" height="1.05" fill="#eeeeee"/>
  <rect x="11" y="12" width="1.05" height="1.05" fill="#b8b8b8"/>
  <rect x="12" y="12" width="1.05" height="1.05" fill="#767676"/>
  <rect x="13" y="12" width="1.05" height="1.05" fill="#767676"/>
  <rect x="14" y="12" width="1.05" height="1.05" fill="#767676"/>
  <rect x="15" y="12" width="1.05" height="1.05" fill="#111111"/>
  <rect x="16" y="12" width="1.05" height="1.05" fill="#111111"/>
  <rect x="9" y="13" width="1.05" height="1.05" fill="#111111"/>
  <rect x="10" y="13" width="1.05" height="1.05" fill="#111111"/>
  <rect x="13" y="13" width="1.05" height="1.05" fill="#111111"/>
  <rect x="14" y="13" width="1.05" height="1.05" fill="#111111"/>
  <rect x="9" y="14" width="1.05" height="1.05" fill="#111111"/>
  <rect x="10" y="14" width="1.05" height="1.05" fill="#111111"/>
  <rect x="13" y="14" width="1.05" height="1.05" fill="#111111"/>
  <rect x="14" y="14" width="1.05" height="1.05" fill="#111111"/>
  <rect x="8" y="15" width="1.05" height="1.05" fill="#111111"/>
  <rect x="9" y="15" width="1.05" height="1.05" fill="#111111"/>
  <rect x="10" y="15" width="1.05" height="1.05" fill="#111111"/>
  <rect x="12" y="15" width="1.05" height="1.05" fill="#111111"/>
  <rect x="13" y="15" width="1.05" height="1.05" fill="#111111"/>
  <rect x="14" y="15" width="1.05" height="1.05" fill="#111111"/>
  <rect x="8" y="16" width="1.05" height="1.05" fill="#3a3a3a"/>
  <rect x="9" y="16" width="1.05" height="1.05" fill="#3a3a3a"/>
  <rect x="10" y="16" width="1.05" height="1.05" fill="#3a3a3a"/>
  <rect x="12" y="16" width="1.05" height="1.05" fill="#3a3a3a"/>
  <rect x="13" y="16" width="1.05" height="1.05" fill="#3a3a3a"/>
  <rect x="14" y="16" width="1.05" height="1.05" fill="#3a3a3a"/>
</svg>